<svg xmlns="http://www.w3.org/2000/svg" viewBox="0 0 1012.08 416"><defs><style>.cls-1,.cls-2,.cls-7,.cls-8{fill:none;stroke-miterlimit:10;}.cls-1,.cls-2,.cls-7{stroke:#6d6e71;}.cls-1,.cls-2{stroke-width:4px;}.cls-2{stroke-linecap:round;}.cls-3,.cls-6{fill:#6d6e71;}.cls-4{fill:#97d7d9;}.cls-5{fill:#ef9d9c;}.cls-6{font-size:96.04px;font-family:Quesha, Quesha;}.cls-8{stroke:#808285;}.cls-9{fill:#fff;}</style></defs><title>hbehadrawings</title>
<!-- HA -->
<g id="HA"><rect class="cls-1" x="218.4" y="249.29" width="236.21" height="76.21" rx="12" ry="12"/><line class="cls-1" x1="280" y1="69.29" x2="393.11" y2="69.29"/><path class="cls-1" d="M697.48,844.33h-95c-6.94,0-12.61-5.4-12.61-12V780.12c0-6.6,5.67-12,12.61-12h21.11" transform="translate(-371.46 -698.83)"/><path class="cls-1" d="M792.45,768.12h21c6.94,0,12.61,5.4,12.61,12v52.21c0,6.6-5.67,12-12.61,12h-92" transform="translate(-371.46 -698.83)"/><rect class="cls-2" x="454.61" y="81.82" width="20.96" height="47.16" rx="5.46" ry="5.46"/><rect class="cls-2" x="196.61" y="81.82" width="20.96" height="47.16" rx="5.46" ry="5.46"/><polyline class="cls-2" points="393.11 69.29 393.11 55.66 420.99 55.66 420.99 69.29"/><polyline class="cls-2" points="252.12 69.29 252.12 55.66 280 55.66 280 69.29"/><polyline class="cls-2" points="350.04 145.5 350.04 153.2 326.02 153.2 326.02 145.5"/><rect class="cls-3" x="392.38" y="212.12" width="29.33" height="10"/><rect class="cls-3" x="404.38" y="219.79" width="6.16" height="32.33"/><rect class="cls-3" x="323.36" y="355.17" width="29.33" height="10"/><rect class="cls-3" x="335.36" y="325.17" width="6.16" height="32.33"/><rect class="cls-3" x="251.39" y="210.29" width="29.33" height="10"/><rect class="cls-3" x="263.39" y="217.95" width="6.16" height="32.33"/><circle class="cls-4" cx="245.95" cy="91.5" r="5.45"/><circle class="cls-4" cx="245.95" cy="121.5" r="5.45"/><circle class="cls-4" cx="281.75" cy="91.5" r="5.45"/><circle class="cls-4" cx="281.75" cy="121.5" r="5.45"/><circle class="cls-4" cx="317.55" cy="91.5" r="5.45"/><circle class="cls-4" cx="317.55" cy="121.5" r="5.45"/><circle class="cls-4" cx="353.35" cy="91.5" r="5.45"/><circle class="cls-4" cx="353.35" cy="121.5" r="5.45"/><circle class="cls-4" cx="389.15" cy="91.5" r="5.45"/><circle class="cls-4" cx="389.15" cy="121.5" r="5.45"/><circle class="cls-4" cx="424.95" cy="91.5" r="5.45"/><circle class="cls-4" cx="424.95" cy="121.5" r="5.45"/><circle class="cls-5" cx="245.95" cy="272.5" r="5.45"/><circle class="cls-5" cx="245.95" cy="302.5" r="5.45"/><circle class="cls-5" cx="281.75" cy="272.5" r="5.45"/><circle class="cls-5" cx="281.75" cy="302.5" r="5.45"/><circle class="cls-5" cx="317.55" cy="272.5" r="5.45"/><circle class="cls-5" cx="317.55" cy="302.5" r="5.45"/><circle class="cls-5" cx="353.35" cy="272.5" r="5.45"/><circle class="cls-5" cx="353.35" cy="302.5" r="5.45"/><circle class="cls-5" cx="389.15" cy="272.5" r="5.45"/><circle class="cls-5" cx="389.15" cy="302.5" r="5.45"/><circle class="cls-5" cx="424.95" cy="272.5" r="5.45"/><circle class="cls-5" cx="424.95" cy="302.5" r="5.45"/><text class="cls-6" transform="translate(0 227.95)">HBE</text><line class="cls-7" x1="153.06" y1="1.5" x2="153.06" y2="413.5"/><line class="cls-8" x1="153.06" y1="1.5" x2="369.53" y2="1.5"/><line class="cls-7" x1="151.09" y1="415.5" x2="363.36" y2="415.5"/><circle class="cls-7" cx="281.41" cy="272.5" r="12.86"/><circle class="cls-7" cx="245.95" cy="302.5" r="12.86"/><circle class="cls-7" cx="317.64" cy="302.5" r="12.86"/><circle class="cls-7" cx="353.39" cy="272.5" r="12.86"/><circle class="cls-7" cx="389.46" cy="302.5" r="12.86"/><circle class="cls-7" cx="424.95" cy="272.5" r="12.86"/><line class="cls-7" x1="255.67" y1="294.09" x2="272.21" y2="281.48"/><line class="cls-7" x1="293.06" y1="277.95" x2="307.92" y2="294.09"/><line class="cls-7" x1="327.35" y1="294.09" x2="344.18" y2="281.48"/><line class="cls-7" x1="365.04" y1="277.95" x2="382.02" y2="292.02"/><line class="cls-7" x1="399.18" y1="294.09" x2="415.74" y2="281.48"/></g>
<!-- hbe-->
<g id="HBE"><text class="cls-6" transform="translate(603.93 226.95)">HA</text><line class="cls-7" x1="725.99" y1="0.5" x2="725.99" y2="412.5"/><line class="cls-8" x1="725.99" y1="0.5" x2="942.46" y2="0.5"/><line class="cls-7" x1="724.03" y1="414.5" x2="936.3" y2="414.5"/><rect class="cls-1" x="766.4" y="59.29" width="236.21" height="76.21" rx="12" ry="12"/><circle class="cls-4" cx="796" cy="81.05" r="5.45"/><circle class="cls-4" cx="796" cy="111.05" r="5.45"/><circle class="cls-4" cx="831.8" cy="81.05" r="5.45"/><circle class="cls-4" cx="831.8" cy="111.05" r="5.45"/><circle class="cls-4" cx="867.6" cy="81.05" r="5.45"/><circle class="cls-4" cx="867.6" cy="111.05" r="5.45"/><circle class="cls-4" cx="903.4" cy="81.05" r="5.45"/><circle class="cls-4" cx="903.4" cy="111.05" r="5.45"/><circle class="cls-4" cx="939.2" cy="81.05" r="5.45"/><circle class="cls-4" cx="939.2" cy="111.05" r="5.45"/><circle class="cls-4" cx="975" cy="81.05" r="5.45"/><circle class="cls-4" cx="975" cy="111.05" r="5.45"/><rect class="cls-3" x="843.72" y="58.29" width="6.79" height="11.16" rx="3.4" ry="3.4"/><rect class="cls-3" x="915.72" y="58.29" width="6.79" height="11.16" rx="3.4" ry="3.4"/><rect class="cls-3" x="810.72" y="126.29" width="6.79" height="11.16" rx="3.4" ry="3.4"/><rect class="cls-3" x="954.72" y="126.29" width="6.79" height="11.16" rx="3.4" ry="3.4"/><rect class="cls-1" x="773.87" y="242.9" width="236.21" height="76.21" rx="12" ry="12"/><circle class="cls-5" cx="803.47" cy="264.67" r="5.45"/><circle class="cls-5" cx="803.47" cy="294.67" r="5.45"/><circle class="cls-5" cx="839.27" cy="264.67" r="5.45"/><circle class="cls-5" cx="839.27" cy="294.67" r="5.45"/><circle class="cls-5" cx="875.07" cy="264.67" r="5.45"/><circle class="cls-5" cx="875.07" cy="294.67" r="5.45"/><circle class="cls-5" cx="910.87" cy="264.67" r="5.45"/><circle class="cls-5" cx="910.87" cy="294.67" r="5.45"/><circle class="cls-5" cx="946.67" cy="264.67" r="5.45"/><circle class="cls-5" cx="946.67" cy="294.67" r="5.45"/><circle class="cls-5" cx="982.47" cy="264.67" r="5.45"/><circle class="cls-5" cx="982.47" cy="294.67" r="5.45"/><circle class="cls-9" cx="857.99" cy="236.43" r="7.47"/><circle class="cls-9" cx="926.99" cy="236.43" r="7.47"/><circle class="cls-9" cx="818.99" cy="325.43" r="7.47"/><circle class="cls-9" cx="964.99" cy="325.43" r="7.47"/></g></svg>