<?xml version="1.0" encoding="utf-8"?>
<!-- Generator: Adobe Illustrator 22.1.0, SVG Export Plug-In . SVG Version: 6.00 Build 0)  -->
<svg version="1.1" id="Layer_1" xmlns="http://www.w3.org/2000/svg" xmlns:xlink="http://www.w3.org/1999/xlink" x="0px" y="0px"
	 viewBox="0 0 260 260" style="enable-background:new 0 0 260 260;" xml:space="preserve">
<style type="text/css">
	.st0{fill:none;}
	.st1{display:none;}
	.st2{display:inline;fill:#8AD7F8;}
	.st3{display:inline;fill:#F36F5A;}
	.st4{display:inline;fill:#221F1F;}
	.st5{display:inline;fill:#FFD05B;}
	.st6{display:inline;}
	.st7{display:inline;clip-path:url(#SVGID_2_);fill:#FFFFFF;stroke:#000000;stroke-width:2;stroke-miterlimit:10;}
	.st8{display:inline;clip-path:url(#SVGID_2_);fill:#F36F5A;}
	.st9{display:inline;clip-path:url(#SVGID_2_);}
	.st10{fill:none;stroke:#FFFFFF;stroke-width:6;stroke-linecap:round;stroke-miterlimit:10;}
	.st11{display:inline;clip-path:url(#SVGID_2_);fill:#FFFFFF;}
	.st12{display:inline;clip-path:url(#SVGID_2_);fill:#898B8C;stroke:#000000;stroke-width:2;stroke-miterlimit:10;}
	.st13{clip-path:url(#SVGID_4_);}
	.st14{fill:#FFFFFF;stroke:#000000;stroke-width:2;stroke-miterlimit:10;}
	.st15{fill:#F36F5A;}
	.st16{fill:#FFD05B;}
	.st17{fill:#221F1F;}
</style>
<rect x="-138.9" y="3.8" class="st0" width="19.1" height="19.1"/>
<g class="st1">
	<rect x="4.1" y="3.8" class="st2" width="21" height="21"/>
	<rect x="4.8" y="28.4" class="st3" width="19.5" height="19.5"/>
	<rect x="4.8" y="53" class="st4" width="19.5" height="19.5"/>
	<rect x="4.8" y="77.6" class="st5" width="19.5" height="19.5"/>
</g>
<g class="st1">
	<defs>
		<circle id="SVGID_1_" cx="130.8" cy="127.2" r="102.2"/>
	</defs>
	<use xlink:href="#SVGID_1_"  style="display:inline;overflow:visible;fill:#8AD7F8;"/>
	<clipPath id="SVGID_2_" class="st6">
		<use xlink:href="#SVGID_1_"  style="overflow:visible;"/>
	</clipPath>
	<path class="st7" d="M65,203.4V70.2c0,0,2-25.4,25.4-26.4h67.8l61.5,58.1c0,0,2.9,0.5,3.4,19.5v53.7v66.4H69.9L65,203.4z"/>
	<path class="st8" d="M65.5,207.2l10.7-136c0,0-0.5-17.1,20.7-17.1l63.6-6.6l29.4,25.9l31,30.5l2.2,75.2c0,0-60,69.3-102,58.1
		S65.5,207.2,65.5,207.2z"/>
	<g class="st9">
		<line class="st10" x1="139.7" y1="142.4" x2="177.3" y2="142.4"/>
		<line class="st10" x1="139.7" y1="165.9" x2="177.3" y2="165.9"/>
		<line class="st10" x1="139.7" y1="193.2" x2="177.3" y2="193.2"/>
	</g>
	<circle class="st11" cx="110.7" cy="142.4" r="6.6"/>
	<circle class="st11" cx="110.7" cy="169.7" r="6.6"/>
	<circle class="st11" cx="110.7" cy="193.1" r="6.6"/>
	<path class="st12" d="M157.5,44.5c0,0,9.6,9.3,10.1,32.2c0,0-2,20.1,24.2,20.1c0,0,21.1-0.4,30.2,8.1L157.5,44.5z"/>
</g>
<g>
	<defs>
		<circle id="SVGID_3_" cx="130.8" cy="127.2" r="102.2"/>
	</defs>
	<use xlink:href="#SVGID_3_"  style="overflow:visible;fill:#8AD7F8;"/>
	<clipPath id="SVGID_4_">
		<use xlink:href="#SVGID_3_"  style="overflow:visible;"/>
	</clipPath>
	<g class="st13">
		<path class="st14" d="M203.9,209H57.3c-2.9,0-5.3-2.4-5.3-5.3V89c0-2.9,2.4-5.3,5.3-5.3h146.7c2.9,0,5.3,2.4,5.3,5.3v114.8
			C209.2,206.6,206.8,209,203.9,209z"/>
		<path class="st15" d="M119.7,193.8H73.1c-1.6,0-2.9-1.3-2.9-2.9v-78.5c0-1.6,1.3-2.9,2.9-2.9h46.6c1.6,0,2.9,1.3,2.9,2.9v78.5
			C122.6,192.5,121.3,193.8,119.7,193.8z"/>
		<path class="st16" d="M157.1,65.5h-14c0-0.4,0.1-0.8,0.1-1.1v-6.8c0-6.9-5.6-12.5-12.5-12.5h-2.3c-6.9,0-12.5,5.6-12.5,12.5v6.8
			c0,0.4,0,0.8,0.1,1.1h-11.7c-3.6,0-6.5,2.9-6.5,6.5v18.8c0,3.6,2.9,6.5,6.5,6.5h53c3.6,0,6.5-2.9,6.5-6.5V72
			C163.6,68.4,160.7,65.5,157.1,65.5z M122.6,58.7c0-3.8,3.1-6.8,6.8-6.8s6.8,3.1,6.8,6.8s-3.1,6.8-6.8,6.8S122.6,62.4,122.6,58.7z"
			/>
		<path class="st15" d="M159.1,72.9v17c0,1.6-1.3,2.9-2.9,2.9H105c-1.6,0-2.9-1.3-2.9-2.9v-17c0-1.6,1.3-2.9,2.9-2.9h51.2
			C157.8,70.1,159.1,71.3,159.1,72.9z"/>
		<path class="st17" d="M187.7,115.6h-50.4c-0.5,0-1-0.5-1-1v-2.6c0-0.6,0.5-1,1-1h50.4c0.5,0,1,0.4,1,1v2.6
			C188.7,115.2,188.2,115.6,187.7,115.6z"/>
		<path class="st17" d="M187.7,136.1h-50.4c-0.5,0-1-0.4-1-1v-2.6c0-0.6,0.5-1,1-1h50.4c0.5,0,1,0.4,1,1v2.6
			C188.7,135.7,188.2,136.1,187.7,136.1z"/>
		<path class="st17" d="M187.7,154.3h-50.4c-0.5,0-1-0.4-1-1v-2.6c0-0.5,0.5-1,1-1h50.4c0.5,0,1,0.5,1,1v2.6
			C188.7,153.9,188.2,154.3,187.7,154.3z"/>
		<path class="st17" d="M187.7,172.6h-50.4c-0.5,0-1-0.4-1-1V169c0-0.6,0.5-1,1-1h50.4c0.5,0,1,0.4,1,1v2.6
			C188.7,172.1,188.2,172.6,187.7,172.6z"/>
		<path class="st17" d="M187.7,188.5h-50.4c-0.5,0-1-0.4-1-1v-2.6c0-0.6,0.5-1,1-1h50.4c0.5,0,1,0.4,1,1v2.6
			C188.7,188.1,188.2,188.5,187.7,188.5z"/>
	</g>
</g>
</svg>
