<?xml version="1.0" encoding="utf-8"?>
<!-- Generator: Adobe Illustrator 22.1.0, SVG Export Plug-In . SVG Version: 6.00 Build 0)  -->
<svg version="1.1" id="Layer_1" xmlns="http://www.w3.org/2000/svg" xmlns:xlink="http://www.w3.org/1999/xlink" x="0px" y="0px"
	 viewBox="0 0 260 260" style="enable-background:new 0 0 260 260;" xml:space="preserve">
<style type="text/css">
	.st0{fill:none;}
	.st1{display:none;}
	.st2{display:inline;fill:#8AD7F8;}
	.st3{display:inline;fill:#F36F5A;}
	.st4{display:inline;fill:#221F1F;}
	.st5{display:inline;fill:#FFD05B;}
	.st6{clip-path:url(#SVGID_2_);fill:#FFFFFF;stroke:#000000;stroke-width:2;stroke-miterlimit:10;}
	.st7{clip-path:url(#SVGID_2_);fill:#F36F5A;}
	.st8{clip-path:url(#SVGID_2_);}
	.st9{fill:none;stroke:#FFFFFF;stroke-width:6;stroke-linecap:round;stroke-miterlimit:10;}
	.st10{clip-path:url(#SVGID_2_);fill:#FFFFFF;}
	.st11{clip-path:url(#SVGID_2_);fill:#898B8C;stroke:#000000;stroke-width:2;stroke-miterlimit:10;}
</style>
<rect x="-138.9" y="3.8" class="st0" width="19.1" height="19.1"/>
<g class="st1">
	<rect x="4.1" y="3.8" class="st2" width="21" height="21"/>
	<rect x="4.8" y="28.4" class="st3" width="19.5" height="19.5"/>
	<rect x="4.8" y="53" class="st4" width="19.5" height="19.5"/>
	<rect x="4.8" y="77.6" class="st5" width="19.5" height="19.5"/>
</g>
<g>
	<defs>
		<circle id="SVGID_1_" cx="130.8" cy="127.2" r="102.2"/>
	</defs>
	<use xlink:href="#SVGID_1_"  style="overflow:visible;fill:#8AD7F8;"/>
	<clipPath id="SVGID_2_">
		<use xlink:href="#SVGID_1_"  style="overflow:visible;"/>
	</clipPath>
	<path class="st6" d="M65,203.4V70.2c0,0,2-25.4,25.4-26.4h67.8l61.5,58.1c0,0,2.9,0.5,3.4,19.5v53.7v66.4H69.9L65,203.4z"/>
	<path class="st7" d="M65.5,207.2l10.7-136c0,0-0.5-17.1,20.7-17.1l63.6-6.6l29.4,25.9l31,30.5l2.2,75.2c0,0-60,69.3-102,58.1
		S65.5,207.2,65.5,207.2z"/>
	<g class="st8">
		<line class="st9" x1="139.7" y1="142.4" x2="177.3" y2="142.4"/>
		<line class="st9" x1="139.7" y1="165.9" x2="177.3" y2="165.9"/>
		<line class="st9" x1="139.7" y1="193.2" x2="177.3" y2="193.2"/>
	</g>
	<circle class="st10" cx="110.7" cy="142.4" r="6.6"/>
	<circle class="st10" cx="110.7" cy="169.7" r="6.6"/>
	<circle class="st10" cx="110.7" cy="193.1" r="6.6"/>
	<path class="st11" d="M157.5,44.5c0,0,9.6,9.3,10.1,32.2c0,0-2,20.1,24.2,20.1c0,0,21.1-0.4,30.2,8.1L157.5,44.5z"/>
</g>
</svg>
